<?xml version="1.0" standalone="no"?>
<!DOCTYPE svg PUBLIC "-//W3C//DTD SVG 20010904//EN"
 "http://www.w3.org/TR/2001/REC-SVG-20010904/DTD/svg10.dtd">
<svg version="1.0" xmlns="http://www.w3.org/2000/svg"
 width="512.000000pt" height="512.000000pt" viewBox="0 0 512.000000 512.000000"
 preserveAspectRatio="xMidYMid meet">
<metadata>
Created by potrace 1.16, written by Peter Selinger 2001-2019
</metadata>
<g transform="translate(0.000000,512.000000) scale(0.100000,-0.100000)"
fill="#000000" stroke="none">
<path d="M3805 5056 c289 -152 562 -341 745 -517 59 -57 63 -63 46 -73 -10 -6
-45 -33 -78 -59 l-59 -48 43 -51 c24 -27 50 -59 59 -70 11 -14 18 -17 23 -9 4
6 12 9 17 6 5 -4 14 -3 20 1 7 4 -6 24 -34 53 -52 54 -61 75 -41 92 19 16 32
3 132 -125 159 -203 292 -457 398 -766 l43 -125 1 113 c0 82 -4 121 -15 142
-9 17 -13 30 -10 30 4 0 -3 13 -14 29 -12 16 -21 41 -21 54 0 14 -5 29 -10 32
-6 4 -8 11 -5 16 4 5 3 9 -2 9 -4 0 -16 17 -25 38 -35 76 -66 148 -72 169 -4
11 -13 27 -21 33 -8 7 -15 20 -15 30 0 10 -7 21 -16 24 -9 4 -14 9 -11 12 3 4
-5 24 -19 45 -13 21 -24 43 -24 49 0 5 -3 10 -7 10 -5 0 -19 17 -33 38 -13 20
-39 55 -57 78 -18 23 -33 47 -33 55 0 8 -18 42 -40 77 -22 35 -47 77 -55 95
-8 18 -25 47 -37 66 -21 33 -21 34 -2 28 33 -12 -177 177 -311 279 -44 34
-133 93 -199 132 l-119 72 -131 0 -131 0 120 -64z"/>
<path d="M1395 4937 c-268 -144 -573 -389 -729 -584 -55 -68 -77 -91 -59 -59
37 64 220 262 343 369 36 31 61 57 55 57 -5 0 -26 -15 -46 -33 -20 -18 -51
-43 -69 -57 -62 -47 -150 -133 -150 -147 0 -8 -4 -11 -10 -8 -5 3 -10 1 -10
-6 0 -6 -12 -24 -27 -40 -16 -15 -33 -34 -38 -41 -16 -20 -63 -102 -64 -111
-1 -17 -36 -67 -47 -67 -9 0 -35 -42 -36 -60 -3 -26 -53 -141 -141 -319 -117
-236 -132 -272 -113 -265 7 3 18 -7 24 -21 6 -14 16 -25 20 -25 5 0 26 37 46
83 21 45 64 131 97 191 32 60 59 116 59 123 0 8 7 16 15 19 8 4 13 10 10 14
-9 14 98 182 180 285 18 22 53 72 77 110 95 148 401 396 664 537 l81 43 -26
27 -26 27 -80 -42z"/>
<path d="M2488 4933 c7 -3 16 -2 19 1 4 3 -2 6 -13 5 -11 0 -14 -3 -6 -6z"/>
<path d="M2647 4903 c-4 -3 -44 -8 -89 -10 -108 -4 -127 -6 -294 -37 -78 -15
-175 -38 -215 -52 -101 -35 -169 -54 -194 -54 -29 0 -158 -120 -189 -176 -14
-25 -22 -44 -18 -42 79 42 217 103 286 127 172 61 412 111 532 111 50 0 53 2
123 70 39 39 69 70 68 70 -2 0 -7 -3 -10 -7z"/>
<path d="M1109 4793 c-13 -16 -12 -17 4 -4 9 7 17 15 17 17 0 8 -8 3 -21 -13z"/>
<path d="M2792 4791 c-66 -17 -57 -21 83 -41 44 -6 139 -25 210 -42 80 -18
169 -31 230 -34 55 -2 96 -2 90 1 -10 4 -154 43 -190 50 -11 3 -31 9 -45 14
-101 39 -314 68 -378 52z"/>
<path d="M1030 4740 c-9 -6 -10 -10 -3 -10 6 0 15 5 18 10 8 12 4 12 -15 0z"/>
<path d="M3411 4625 l-34 -15 89 -44 c50 -24 96 -50 104 -58 8 -8 58 -43 110
-78 152 -101 268 -200 410 -347 365 -378 592 -906 601 -1398 7 -372 3 -571
-15 -679 -33 -204 -90 -366 -187 -536 -54 -95 -260 -358 -365 -465 -106 -108
-314 -259 -491 -357 -79 -43 -93 -55 -39 -33 65 28 201 114 374 238 46 32 85
58 87 56 6 -7 -153 -132 -275 -215 -68 -46 -124 -85 -126 -87 -2 -1 7 -3 19
-3 12 0 28 6 35 13 7 7 20 13 28 13 8 0 14 5 14 10 0 6 6 10 12 10 24 0 133
74 185 124 28 28 61 58 73 66 13 8 28 20 35 27 7 7 15 9 19 6 3 -3 70 59 148
138 119 120 155 164 214 259 63 103 90 156 192 380 27 59 58 154 68 205 2 11
6 31 9 45 3 14 7 43 10 65 10 69 34 142 52 156 11 9 14 10 9 2 -4 -7 -2 -13 3
-13 6 0 11 11 11 24 0 12 2 52 5 87 4 44 2 58 -4 44 -8 -16 -10 -13 -10 21 -1
22 -4 44 -8 48 -13 12 -15 40 -16 176 0 146 4 177 23 172 9 -2 11 6 6 29 -3
17 -6 40 -6 51 0 16 -3 18 -13 9 -11 -8 -18 -7 -29 7 -17 19 -26 60 -43 207
-4 28 -13 70 -20 95 -8 25 -17 56 -19 70 -20 97 -52 191 -102 297 -19 40 -34
77 -34 83 0 5 -4 10 -8 10 -5 0 -15 18 -22 40 -7 22 -19 48 -27 57 -7 10 -34
50 -59 88 -26 39 -51 72 -55 73 -5 2 -9 9 -9 15 0 7 -11 24 -25 39 -14 15 -25
30 -25 33 0 3 0 8 0 13 0 4 -20 30 -45 57 -24 28 -45 53 -45 57 0 4 -27 39
-59 77 -33 38 -57 72 -53 76 4 4 1 5 -5 3 -7 -1 -50 33 -95 78 -46 44 -111
103 -145 132 -34 28 -72 60 -85 73 -13 12 -49 38 -80 59 -31 20 -63 43 -71 51
-7 8 -26 23 -40 34 -15 11 -27 25 -27 31 0 16 -91 16 -129 -1z m1357 -1920
c-3 -3 -9 2 -12 12 -6 14 -5 15 5 6 7 -7 10 -15 7 -18z"/>
<path d="M2575 4529 c455 -59 714 -150 1035 -364 218 -145 381 -309 537 -540
115 -171 241 -428 288 -589 67 -233 106 -532 95 -727 -4 -64 -2 -85 7 -82 21
8 24 75 14 353 -11 291 -24 384 -77 551 -112 354 -347 729 -623 991 -99 94
-215 182 -243 184 -10 1 -22 2 -27 3 -16 2 -86 63 -83 73 1 5 -2 7 -8 3 -5 -3
-10 -1 -10 5 0 6 -4 9 -9 6 -5 -4 -12 0 -15 6 -3 7 -3 -1 0 -18 5 -34 -15 -60
-41 -50 -23 8 -18 45 8 56 13 5 16 9 7 9 -9 1 -21 -4 -27 -10 -7 -7 -29 -4
-74 10 -35 11 -77 22 -94 25 -16 3 -55 12 -85 20 -132 36 -421 84 -530 89
-100 4 -106 3 -45 -4z"/>
<path d="M2388 4523 c18 -2 45 -2 60 0 15 2 0 4 -33 4 -33 0 -45 -2 -27 -4z"/>
<path d="M2260 4513 c-75 -12 -239 -58 -316 -88 -83 -33 -110 -37 -88 -15 5 5
27 16 49 25 22 8 30 14 18 11 -19 -3 -21 -1 -13 14 17 32 -20 29 -93 -7 -149
-74 -397 -233 -469 -301 -24 -22 -26 -28 -15 -45 11 -17 6 -26 -52 -82 -53
-51 -69 -62 -83 -54 -12 6 -24 6 -35 0 -19 -10 -275 -267 -258 -259 6 3 57 20
114 38 103 33 107 35 225 138 145 124 279 228 401 309 50 33 99 71 110 83 89
100 276 181 520 224 44 8 64 14 45 14 -19 -1 -46 -3 -60 -5z"/>
<path d="M2389 4490 c-180 -21 -406 -85 -531 -152 -51 -27 -138 -98 -138 -112
0 -3 26 6 58 20 287 130 523 187 777 187 194 1 195 0 195 -69 l0 -54 -27 7
c-55 15 -364 8 -455 -10 -100 -20 -278 -76 -278 -87 0 -4 46 7 103 25 56 18
144 40 196 49 105 18 342 20 431 5 30 -5 86 -14 123 -20 160 -23 433 -135 597
-245 419 -280 726 -714 819 -1157 11 -51 20 -86 20 -79 1 18 39 15 49 -5 17
-33 32 -123 43 -268 36 -453 -101 -896 -388 -1247 -132 -162 -364 -343 -580
-452 -436 -219 -932 -262 -1368 -120 -99 33 -286 120 -374 175 -248 156 -495
418 -650 688 -197 345 -275 692 -242 1086 25 302 107 559 254 804 31 52 57 95
57 97 0 2 -8 0 -18 -3 -26 -10 -67 -51 -59 -59 6 -7 -31 -47 -79 -85 -22 -17
-110 -213 -160 -359 -40 -115 -43 -108 -8 20 30 110 88 258 143 368 41 81 148
250 185 291 14 16 16 22 6 19 -8 -3 -41 -13 -72 -23 -55 -18 -56 -19 -41 -41
22 -34 10 -71 -54 -166 -175 -263 -286 -603 -299 -918 -16 -391 117 -868 340
-1218 212 -332 496 -584 833 -735 160 -73 372 -138 493 -153 25 -3 61 -7 80
-10 111 -14 142 -16 137 -8 -3 5 20 10 51 12 31 1 77 6 102 12 25 5 110 21
190 35 141 25 172 33 313 82 188 64 353 156 503 279 165 135 284 252 379 374
28 35 78 93 113 128 34 34 62 67 62 73 0 6 4 8 9 5 13 -8 116 216 160 349 22
66 47 154 55 195 26 131 39 330 31 496 -7 154 -7 155 -26 135 -23 -25 -39 -27
-39 -6 0 8 -4 15 -10 15 -11 0 -25 52 -35 125 -26 205 -155 526 -299 745 -286
435 -656 713 -1133 850 -40 11 -73 25 -73 31 0 6 -6 7 -12 3 -7 -4 -5 2 5 13
10 12 14 24 9 27 -18 11 -198 35 -297 40 -55 2 -134 1 -176 -4z m-1662 -1572
c-3 -7 -5 -2 -5 12 0 14 2 19 5 13 2 -7 2 -19 0 -25z m-10 -40 c-3 -8 -6 -5
-6 6 -1 11 2 17 5 13 3 -3 4 -12 1 -19z m-20 -100 c-3 -8 -6 -5 -6 6 -1 11 2
17 5 13 3 -3 4 -12 1 -19z m-10 -85 c-3 -10 -5 -2 -5 17 0 19 2 27 5 18 2 -10
2 -26 0 -35z m-10 -135 c-2 -18 -4 -4 -4 32 0 36 2 50 4 33 2 -18 2 -48 0 -65z"/>
<path d="M4180 4475 c13 -14 26 -25 28 -25 3 0 -5 11 -18 25 -13 14 -26 25
-28 25 -3 0 5 -11 18 -25z"/>
<path d="M1270 4379 c-168 -123 -397 -331 -505 -459 -17 -20 -55 -65 -85 -100
-31 -36 -82 -99 -114 -140 -81 -104 -154 -169 -174 -156 -15 9 -132 -290 -132
-335 0 -5 15 -15 34 -23 18 -8 36 -18 39 -23 3 -5 -7 -66 -23 -135 -15 -69
-33 -172 -39 -227 -12 -112 -15 -402 -4 -501 l6 -62 46 -19 c25 -10 54 -23 63
-29 10 -5 24 -7 33 -4 23 9 41 -11 55 -64 21 -79 70 -235 86 -269 7 -17 14
-36 14 -41 0 -6 16 -38 35 -72 19 -34 35 -63 35 -65 0 -11 73 -120 104 -156
l38 -44 -32 55 c-59 102 -120 234 -115 248 3 8 0 10 -7 6 -8 -5 -9 -2 -5 10 4
9 3 15 -1 12 -17 -10 -95 256 -113 390 -14 97 -16 98 -104 58 -41 -19 -60 -23
-68 -15 -16 16 -22 320 -8 453 14 141 45 295 82 417 32 105 32 101 22 100 -40
-6 -73 18 -78 56 -5 47 11 67 50 63 37 -3 30 -11 167 217 83 137 328 447 457
575 122 122 223 204 339 276 8 5 -20 44 -31 44 -7 -1 -37 -19 -67 -41z m-525
-591 c-14 -18 -67 -85 -117 -148 -49 -63 -95 -117 -101 -119 -13 -5 102 145
181 237 56 64 83 86 37 30z"/>
<path d="M4360 4296 c0 -2 8 -10 18 -17 15 -13 16 -12 3 4 -13 16 -21 21 -21
13z"/>
<path d="M2350 4202 l-55 -7 55 -7 c70 -8 147 -37 128 -49 -7 -5 -34 -9 -59
-9 -186 0 -515 -112 -662 -225 -27 -21 -51 -34 -54 -31 -6 5 -57 -32 -143
-106 -34 -29 -41 -40 -32 -51 9 -11 5 -20 -19 -43 -51 -48 -122 -144 -106
-144 7 0 29 19 48 43 18 23 41 50 49 60 8 10 15 22 15 26 0 18 82 89 106 93
13 1 26 6 29 10 4 4 23 9 43 10 20 2 39 9 42 16 2 6 8 12 13 12 12 0 2 -53
-12 -62 -7 -5 -6 -8 4 -8 9 -1 5 -5 -8 -10 -12 -5 -25 -18 -29 -27 -6 -17
-113 -128 -113 -118 0 7 -50 -37 -79 -69 -14 -16 -37 -41 -50 -55 -33 -36
-111 -159 -111 -174 0 -7 -4 -17 -9 -22 -25 -26 -74 -185 -81 -263 -5 -64 -11
-86 -26 -97 -10 -8 -14 -15 -8 -15 12 0 10 -63 -7 -170 -12 -75 -15 -342 -5
-415 7 -49 28 -146 64 -292 16 -64 19 -70 35 -61 10 5 20 8 21 6 1 -1 15 -29
31 -60 l30 -57 -34 -35 c-25 -26 -29 -34 -15 -30 25 7 36 -7 109 -126 59 -98
153 -199 210 -226 18 -8 42 -24 53 -34 12 -11 24 -20 27 -20 3 0 52 -31 108
-69 56 -37 133 -82 170 -100 78 -36 210 -82 247 -86 14 -1 59 -5 100 -9 41 -4
86 -10 100 -13 46 -11 55 -8 73 27 l17 35 -4 -55 c-2 -30 -2 -48 1 -39 4 18
74 36 168 43 87 7 223 36 275 59 25 11 70 31 100 45 62 27 298 181 320 207 8
10 -16 -1 -53 -23 -149 -92 -303 -155 -467 -193 -128 -30 -358 -36 -491 -14
-230 38 -455 138 -620 276 -41 34 -48 37 -59 23 -12 -13 -20 -8 -67 38 -102
99 -236 281 -248 335 -2 10 -25 68 -50 129 -105 256 -135 537 -90 827 15 94
21 111 36 102 5 -4 9 2 9 12 0 11 16 34 35 53 31 30 48 59 27 46 -14 -9 -82
17 -82 30 0 26 51 149 96 231 144 264 392 496 679 634 120 59 103 66 -20 9
-48 -22 -89 -40 -91 -40 -2 0 -1 7 2 15 9 22 -1 19 -95 -31 -47 -25 -75 -37
-61 -26 41 34 238 127 248 118 2 -3 -7 -10 -22 -15 -36 -14 -33 -22 4 -10 17
6 30 15 30 20 0 5 3 8 8 7 12 -4 105 23 152 45 26 12 70 22 105 23 42 2 54 0
40 -7 -13 -5 2 -6 40 -1 33 4 143 6 245 6 161 -1 178 0 128 10 -31 6 -59 14
-63 17 -3 4 -3 34 1 66 l6 60 47 -9 c25 -4 68 -19 95 -33 27 -14 70 -28 95
-31 25 -3 48 -7 52 -9 7 -5 42 -11 114 -20 122 -15 354 -153 522 -309 236
-219 367 -460 468 -860 52 -203 65 -292 65 -431 0 -95 -25 -283 -49 -362 -6
-22 -6 -33 1 -33 5 0 12 9 15 20 3 11 9 20 14 20 4 0 6 15 4 33 -6 43 5 108
17 101 6 -4 8 6 6 22 -1 15 2 29 9 31 7 3 10 -4 6 -19 -5 -22 -5 -22 9 -4 14
18 15 17 27 -13 8 -17 19 -31 25 -31 6 0 12 -9 13 -20 1 -11 -1 -20 -5 -20 -4
0 -7 -10 -8 -22 0 -13 -3 -52 -7 -88 -6 -63 -5 -62 14 25 23 107 36 369 23
500 -4 50 -10 80 -12 68 -4 -24 -12 -27 -49 -17 -17 5 -23 14 -23 34 0 50 -39
220 -76 329 -199 597 -680 1030 -1278 1152 -107 22 -406 34 -516 21z m260 -82
c0 -16 -7 -20 -35 -20 -28 0 -35 4 -35 20 0 16 7 20 35 20 28 0 35 -4 35 -20z"/>
<path d="M4640 4206 c0 -2 7 -7 16 -10 8 -3 12 -2 9 4 -6 10 -25 14 -25 6z"/>
<path d="M470 4185 c0 -8 -5 -14 -12 -12 -25 5 -295 -403 -281 -426 3 -5 10
-1 16 9 27 48 54 50 50 4 -2 -22 -3 -55 -3 -129 0 -13 52 81 116 210 132 266
138 279 123 279 -6 0 -8 8 -5 18 2 9 7 27 11 40 4 13 2 22 -4 22 -6 0 -11 -7
-11 -15z"/>
<path d="M4625 4150 c3 -5 8 -10 11 -10 2 0 4 5 4 10 0 6 -5 10 -11 10 -5 0
-7 -4 -4 -10z"/>
<path d="M4711 4101 c-1 -8 7 -23 16 -33 16 -18 16 -19 -11 -14 -16 3 -25 2
-21 -2 6 -7 10 -8 36 -11 6 0 9 -12 7 -25 -3 -16 0 -27 9 -30 8 -3 11 -10 8
-16 -3 -5 -1 -10 5 -10 6 0 8 -4 5 -10 -3 -5 -1 -10 4 -10 6 0 11 -7 11 -15 0
-8 5 -15 12 -15 6 0 8 -3 5 -6 -7 -8 36 -86 71 -128 42 -52 129 -246 189 -421
31 -93 59 -162 61 -153 4 22 -67 251 -82 260 -6 4 -7 8 -2 8 5 0 3 6 -3 13 -6
8 -8 17 -4 20 3 4 1 7 -5 7 -6 0 -9 7 -6 15 4 8 2 15 -3 15 -5 0 -9 10 -10 22
-3 31 -220 468 -233 468 -6 0 -8 5 -5 10 3 6 1 10 -5 10 -6 0 -8 5 -5 10 4 6
1 9 -7 8 -7 -2 -12 5 -12 14 1 10 -2 16 -6 13 -5 -3 -11 1 -13 7 -4 10 -6 9
-6 -1z"/>
<path d="M2325 4010 c-3 -5 1 -10 9 -10 9 0 16 5 16 10 0 6 -4 10 -9 10 -6 0
-13 -4 -16 -10z"/>
<path d="M2663 3963 c9 -2 25 -2 35 0 9 3 1 5 -18 5 -19 0 -27 -2 -17 -5z"/>
<path d="M2753 3953 c9 -2 23 -2 30 0 6 3 -1 5 -18 5 -16 0 -22 -2 -12 -5z"/>
<path d="M2850 3931 c136 -47 175 -67 175 -89 0 -15 13 -29 39 -43 57 -30 116
-68 116 -75 0 -3 -19 7 -42 21 -24 14 -68 37 -98 51 -30 14 -57 29 -61 35 -9
15 -139 47 -243 60 -100 13 -304 7 -402 -11 -34 -7 -91 -23 -125 -36 l-64 -24
127 3 c69 1 124 -1 121 -5 -2 -5 3 -8 11 -8 9 0 16 5 16 11 0 6 9 9 20 6 10
-3 21 0 22 5 2 5 57 12 123 15 120 5 120 5 250 -37 72 -23 159 -56 194 -71 71
-32 247 -146 286 -185 14 -14 29 -23 34 -20 5 3 23 -7 40 -23 16 -15 32 -24
34 -18 2 6 13 1 25 -11 12 -12 29 -22 37 -22 8 0 15 -3 16 -7 0 -5 2 -18 5
-31 2 -13 0 -21 -4 -18 -4 2 -14 1 -21 -3 -10 -6 6 -30 57 -87 132 -149 155
-159 69 -30 -28 44 -60 93 -70 110 -18 30 -18 30 12 -4 17 -19 37 -35 44 -35
6 0 33 -21 60 -47 26 -27 51 -48 57 -48 5 0 7 -6 4 -13 -3 -8 1 -14 8 -15 7 0
24 -4 38 -8 24 -7 24 -6 9 12 -8 10 -32 47 -52 82 -35 60 -36 64 -21 87 15 22
14 26 -10 62 -26 38 -35 39 -16 2 19 -34 -5 -20 -60 37 -69 70 -187 169 -265
221 -147 100 -386 202 -505 217 l-45 5 55 -18z m390 -169 c64 -45 240 -208
240 -223 0 -4 -24 17 -52 48 -62 65 -169 154 -250 208 -32 21 -58 40 -58 43 0
5 34 -16 120 -76z"/>
<path d="M1980 3909 c0 -5 5 -7 10 -4 6 3 10 8 10 11 0 2 -4 4 -10 4 -5 0 -10
-5 -10 -11z"/>
<path d="M2078 3878 c-31 -11 -38 -28 -10 -23 9 2 24 4 33 4 9 1 16 8 16 16 0
17 -2 17 -39 3z"/>
<path d="M1562 3868 c-7 -7 -12 -18 -12 -26 0 -7 -5 -10 -10 -7 -6 4 -56 -37
-111 -91 -94 -92 -101 -98 -121 -85 -24 15 -25 14 -76 -70 -21 -36 -21 -38 -3
-34 22 4 61 -32 46 -43 -6 -4 -11 -15 -12 -26 -1 -22 -4 -25 86 96 39 53 115
138 169 188 53 50 88 88 78 84 -13 -5 -17 -4 -12 4 9 15 -9 23 -22 10z"/>
<path d="M1990 3840 c-8 -5 -10 -10 -5 -10 6 0 17 5 25 10 8 5 11 10 5 10 -5
0 -17 -5 -25 -10z"/>
<path d="M3920 3828 c0 -10 40 -51 45 -46 3 2 -6 15 -20 28 -14 13 -25 21 -25
18z"/>
<path d="M3970 3762 c0 -4 10 -13 23 -21 22 -14 22 -14 3 8 -20 22 -26 25 -26
13z"/>
<path d="M155 3729 c-4 -6 -5 -12 -2 -15 2 -3 7 2 10 11 7 17 1 20 -8 4z"/>
<path d="M2391 3708 c-111 -23 -168 -43 -269 -90 -79 -38 -284 -168 -297 -188
-4 -6 7 -10 23 -10 18 0 54 18 99 49 106 74 236 135 383 179 121 37 175 63
153 74 -4 3 -46 -4 -92 -14z"/>
<path d="M2498 3671 l-3 -61 29 0 c15 0 41 -11 56 -24 18 -15 48 -26 82 -30
154 -20 364 -110 498 -213 176 -137 329 -385 374 -605 19 -91 20 -239 3 -322
-12 -57 -36 -88 -38 -49 0 10 -6 -4 -13 -32 -48 -186 -174 -367 -344 -493 -64
-48 -242 -142 -267 -142 -7 0 -15 20 -18 45 -4 25 -9 56 -13 69 -5 21 2 28 70
64 461 249 602 744 322 1136 -60 84 -180 195 -265 246 -284 169 -628 138 -861
-77 -79 -73 -189 -218 -160 -210 10 3 38 -28 34 -38 -2 -5 -5 -23 -8 -40 -3
-16 -10 -52 -16 -80 -7 -30 -9 -115 -6 -210 3 -136 8 -172 30 -240 49 -155
154 -286 292 -365 68 -39 80 -42 154 -45 44 -1 80 1 80 6 0 5 25 9 55 9 51 0
55 2 55 24 0 21 6 25 47 31 275 41 486 332 443 611 -39 253 -294 460 -545 441
-173 -13 -338 -121 -426 -279 -19 -33 -60 -89 -91 -124 -32 -34 -60 -73 -62
-86 -3 -13 -7 -32 -9 -43 -3 -11 -5 0 -6 25 -3 172 104 379 253 485 151 107
310 149 464 121 228 -40 418 -203 494 -425 30 -86 32 -255 4 -346 -65 -214
-247 -396 -448 -448 -31 -8 -67 -12 -81 -10 -22 4 -24 2 -20 -24 4 -22 2 -25
-6 -13 -8 12 -10 6 -9 -25 0 -27 2 -32 5 -15 l5 25 12 -28 11 -29 27 25 c21
20 28 22 32 10 3 -8 11 -11 17 -7 8 5 8 1 0 -14 -6 -12 -16 -24 -21 -27 -6 -3
-10 -12 -10 -18 0 -7 4 -6 11 3 8 11 9 5 4 -25 -22 -141 -13 -160 79 -159 46
0 79 9 136 34 136 60 224 129 356 280 142 162 154 173 171 159 17 -14 13 -71
-6 -108 -29 -53 11 -6 50 59 134 226 178 520 114 764 -108 411 -530 771 -955
814 -73 7 -74 8 -108 52 -19 25 -38 46 -42 48 -5 2 -10 -24 -12 -57z m52 -640
c0 -11 2 -25 5 -33 4 -9 -14 -19 -56 -31 -273 -80 -394 -395 -242 -624 43 -66
101 -114 179 -150 48 -22 73 -27 139 -28 73 0 88 3 156 37 41 21 96 58 123 85
57 55 106 152 105 203 l-1 35 -8 -41 c-21 -106 -98 -202 -202 -253 -74 -37
-122 -46 -175 -36 -31 6 -34 9 -18 15 15 5 8 9 -30 14 -175 27 -323 223 -300
399 16 120 106 241 220 298 53 26 73 30 141 30 43 0 101 -7 128 -15 73 -22
151 -79 200 -146 62 -84 80 -144 81 -260 0 -86 -3 -101 -32 -163 -84 -176
-273 -280 -449 -248 -180 34 -311 160 -366 351 l-18 65 4 -51 c10 -111 97
-244 207 -315 63 -40 156 -69 225 -69 56 0 72 -13 29 -24 -36 -9 -120 3 -185
27 -189 69 -319 251 -320 447 -1 173 118 363 280 449 99 53 180 67 180 32z"/>
<path d="M2509 2897 c-54 -15 -93 -42 -144 -98 -124 -137 -119 -314 13 -446
67 -67 139 -98 227 -98 82 1 120 17 208 92 81 67 107 123 107 227 0 60 3 77
11 69 7 -7 15 -29 19 -50 7 -36 8 -37 9 -7 2 51 -62 166 -124 223 -88 80 -224
116 -326 88z m264 -60 c54 -32 93 -76 119 -135 25 -56 18 -76 -13 -38 -103
122 -154 156 -246 164 -45 4 -53 8 -53 25 0 18 5 19 74 15 56 -4 85 -11 119
-31z m-257 -6 c0 -11 -4 -17 -8 -15 -4 3 -8 0 -8 -5 0 -6 -7 -11 -15 -11 -45
0 -155 -147 -155 -205 1 -11 9 4 19 34 24 69 48 100 104 135 79 49 185 48 231
-2 13 -15 41 -45 61 -67 20 -21 39 -52 42 -67 5 -23 8 -26 24 -17 18 9 19 5
19 -56 0 -108 -42 -181 -131 -229 -100 -55 -213 -33 -297 59 -24 25 -46 61
-52 87 -7 23 -16 54 -21 68 -8 21 -9 21 -5 3 2 -13 1 -25 -4 -28 -15 -9 -21
66 -10 120 10 49 53 129 83 153 13 11 109 61 117 62 3 0 6 -9 6 -19z m351
-323 c-2 -18 -4 -4 -4 32 0 36 2 50 4 33 2 -18 2 -48 0 -65z"/>
<path d="M2791 2524 c0 -11 3 -14 6 -6 3 7 2 16 -1 19 -3 4 -6 -2 -5 -13z"/>
<path d="M2780 2490 c0 -41 -93 -118 -159 -131 l-36 -7 33 -1 c42 -1 102 29
135 69 27 32 43 68 33 77 -3 4 -6 0 -6 -7z"/>
<path d="M2548 2353 c7 -3 16 -2 19 1 4 3 -2 6 -13 5 -11 0 -14 -3 -6 -6z"/>
<path d="M1833 3671 c-125 -100 -327 -351 -307 -383 4 -6 3 -9 -2 -5 -5 3 -20
-13 -32 -36 -13 -23 -17 -34 -9 -25 8 10 17 15 20 11 6 -6 11 12 8 30 0 4 8 7
18 7 11 0 22 6 24 13 3 7 6 4 6 -6 1 -10 6 -15 11 -12 12 8 13 -5 1 -25 -6 -8
-7 -18 -5 -22 3 -5 23 17 44 49 44 66 75 103 85 103 4 0 2 -6 -4 -13 -6 -8 -9
-17 -6 -20 3 -4 2 -5 -1 -2 -7 5 -53 -50 -85 -102 -11 -18 -24 -31 -29 -28
-21 13 -99 -154 -119 -252 -12 -61 -14 -309 -3 -403 7 -62 8 -58 14 70 15 301
78 501 218 689 34 46 60 84 58 85 -2 1 -14 7 -28 14 -14 7 -36 22 -50 32 l-25
20 60 57 c34 32 82 75 107 95 41 34 97 98 85 98 -3 0 -27 -17 -54 -39z"/>
<path d="M4026 3697 c3 -10 9 -15 12 -12 3 3 0 11 -7 18 -10 9 -11 8 -5 -6z"/>
<path d="M4050 3669 c0 -4 26 -47 59 -95 32 -49 70 -112 84 -141 24 -45 47
-75 47 -58 0 3 -32 58 -71 123 -65 109 -119 186 -119 171z"/>
<path d="M1369 3503 c-13 -16 -12 -17 4 -4 9 7 17 15 17 17 0 8 -8 3 -21 -13z"/>
<path d="M3412 3455 c21 -22 39 -37 41 -34 2 2 -15 19 -37 38 l-41 35 37 -39z"/>
<path d="M2210 3462 c0 -7 -4 -10 -10 -7 -5 3 -10 1 -10 -5 0 -6 -4 -8 -10 -5
-5 3 -10 1 -10 -5 0 -6 -4 -8 -10 -5 -5 3 -10 0 -10 -7 0 -11 -62 -61 -79 -64
-12 -2 -46 -18 -51 -24 -3 -4 -30 -25 -61 -47 -98 -72 -245 -258 -299 -378
-48 -108 -86 -242 -97 -340 -9 -85 -16 -65 -10 30 15 230 81 445 183 596 46
67 83 108 157 170 32 27 51 49 43 49 -9 0 -47 -27 -85 -60 -153 -131 -252
-323 -302 -582 -27 -142 -23 -328 11 -453 45 -169 141 -344 250 -459 130 -137
279 -235 403 -267 58 -14 173 -6 196 15 9 7 57 34 106 60 118 60 125 66 124
107 -2 30 -2 31 -6 7 -4 -26 -8 -28 -47 -28 -42 0 -44 1 -50 38 -3 20 -6 53
-6 73 0 32 -3 37 -23 35 -23 -1 -23 -2 -10 -33 17 -41 17 -73 0 -73 -8 0 -22
-8 -31 -19 -17 -18 -19 -18 -92 10 -42 15 -101 43 -132 61 -76 45 -223 187
-277 269 -75 111 -134 275 -135 369 0 25 -3 31 -11 23 -8 -8 -7 -34 6 -95 62
-308 271 -542 587 -657 25 -9 26 -11 16 -51 -10 -39 -13 -42 -40 -36 -61 12
-186 70 -263 121 -203 135 -350 351 -402 590 -24 105 -21 289 6 398 70 292
249 518 511 647 47 23 72 39 55 35 -49 -12 -70 -13 -77 -1 -5 7 -8 7 -8 -2z"/>
<path d="M3712 3398 c2 -22 75 -124 117 -162 11 -10 18 -22 16 -26 -2 -4 7
-32 22 -61 14 -30 36 -85 49 -123 13 -38 28 -74 33 -80 5 -6 12 -26 16 -43 7
-33 18 -42 30 -23 3 6 1 10 -5 10 -8 0 -10 9 -6 26 5 18 3 24 -5 18 -8 -5 -10
1 -7 20 3 15 3 24 0 21 -3 -3 -19 32 -36 78 -18 45 -46 108 -63 139 l-31 58
34 21 c19 11 34 25 34 30 0 13 -6 12 -49 -11 -45 -22 -39 -26 -105 73 -21 31
-40 57 -42 57 -1 0 -2 -10 -2 -22z"/>
<path d="M4274 3273 c67 -136 117 -287 161 -493 13 -58 23 -91 24 -74 2 50
-36 217 -74 332 -39 116 -123 302 -137 302 -4 0 7 -30 26 -67z"/>
<path d="M3882 3262 l-24 -18 34 -65 c18 -35 36 -65 41 -67 4 -2 5 -8 1 -13
-3 -5 0 -9 6 -9 6 0 8 -4 5 -10 -3 -5 -1 -10 5 -10 7 0 10 -7 6 -15 -3 -8 -1
-15 5 -15 6 0 8 -7 5 -16 -3 -8 -2 -12 4 -9 8 5 30 -53 30 -80 0 -6 13 -22 29
-37 15 -15 36 -42 45 -60 23 -46 45 -73 53 -64 4 4 3 10 -2 14 -6 4 -11 14
-13 22 -23 103 -178 470 -199 470 -4 0 -18 -8 -31 -18z"/>
<path d="M3676 3206 c3 -9 11 -16 16 -16 13 0 5 23 -10 28 -7 2 -10 -2 -6 -12z"/>
<path d="M3640 3070 c88 -220 109 -303 117 -467 5 -105 8 -123 23 -123 9 0 21
-5 27 -11 17 -17 71 -20 77 -3 4 11 -4 14 -34 14 l-40 0 0 61 c0 130 -60 354
-132 489 -50 94 -66 111 -38 40z"/>
<path d="M5101 3084 c0 -11 3 -14 6 -6 3 7 2 16 -1 19 -3 4 -6 -2 -5 -13z"/>
<path d="M3986 2851 c-4 -5 -2 -12 3 -15 5 -4 12 -2 15 3 4 5 2 12 -3 15 -5 4
-12 2 -15 -3z"/>
<path d="M3990 2811 c0 -5 7 -11 15 -15 8 -3 15 -1 15 3 0 5 -7 11 -15 15 -8
3 -15 1 -15 -3z"/>
<path d="M1181 2774 c0 -11 3 -14 6 -6 3 7 2 16 -1 19 -3 4 -6 -2 -5 -13z"/>
<path d="M4282 2740 c0 -14 2 -19 5 -12 2 6 2 18 0 25 -3 6 -5 1 -5 -13z"/>
<path d="M1172 2720 c0 -14 2 -19 5 -12 2 6 2 18 0 25 -3 6 -5 1 -5 -13z"/>
<path d="M4131 2724 c0 -11 3 -14 6 -6 3 7 2 16 -1 19 -3 4 -6 -2 -5 -13z"/>
<path d="M5097 2648 c4 -23 8 -145 8 -270 0 -126 3 -228 8 -228 4 0 7 115 7
256 0 216 -2 258 -15 271 -14 13 -15 10 -8 -29z"/>
<path d="M4142 2620 c0 -19 2 -27 5 -17 2 9 2 25 0 35 -3 9 -5 1 -5 -18z"/>
<path d="M4792 2605 c0 -16 2 -22 5 -12 2 9 2 23 0 30 -3 6 -5 -1 -5 -18z"/>
<path d="M4803 2415 c0 -38 2 -53 4 -32 2 20 2 52 0 70 -2 17 -4 1 -4 -38z"/>
<path d="M1183 2405 c0 -22 2 -30 4 -17 2 12 2 30 0 40 -3 9 -5 -1 -4 -23z"/>
<path d="M281 2184 c0 -11 3 -14 6 -6 3 7 2 16 -1 19 -3 4 -6 -2 -5 -13z"/>
<path d="M4941 2033 c0 -31 2 -34 9 -18 12 28 12 55 0 55 -5 0 -10 -17 -9 -37z"/>
<path d="M241 2044 c0 -11 3 -14 6 -6 3 7 2 16 -1 19 -3 4 -6 -2 -5 -13z"/>
<path d="M4251 2004 c0 -11 3 -14 6 -6 3 7 2 16 -1 19 -3 4 -6 -2 -5 -13z"/>
<path d="M4930 1966 c0 -13 -7 -58 -16 -100 -8 -42 -14 -82 -11 -89 2 -6 12
31 21 83 10 52 20 103 23 113 2 9 0 17 -6 17 -6 0 -11 -11 -11 -24z"/>
<path d="M265 1923 c8 -32 26 -96 40 -143 15 -47 33 -108 41 -136 8 -28 42
-102 76 -165 34 -63 80 -149 102 -191 23 -42 55 -92 71 -110 17 -18 43 -54 57
-79 41 -71 138 -198 206 -270 52 -56 58 -67 47 -82 -11 -15 -21 -7 -96 79 -98
111 -251 333 -279 405 -11 27 -52 108 -91 180 -39 72 -94 178 -121 235 -27 57
-53 104 -56 104 -4 -1 -20 -11 -36 -24 l-28 -24 22 -22 c12 -12 40 -61 62
-108 196 -421 320 -622 497 -807 32 -33 78 -85 103 -116 121 -150 375 -343
598 -454 52 -26 103 -51 112 -56 10 -5 25 -6 34 -2 10 3 15 2 12 -3 -4 -5 4
-10 15 -11 12 -1 101 -29 197 -62 174 -60 176 -61 285 -60 l110 1 -115 24
c-332 69 -628 191 -898 370 -126 84 -342 259 -342 277 0 7 11 25 24 42 21 26
25 28 41 15 9 -8 43 -16 74 -17 81 -4 85 -5 99 -16 6 -5 12 -5 12 0 0 5 -41
42 -91 83 -186 153 -354 351 -535 632 -47 73 -104 168 -126 212 -39 78 -118
296 -118 328 0 9 -4 19 -9 22 -5 4 -3 -20 4 -51z"/>
<path d="M3419 1943 c-13 -16 -12 -17 4 -4 16 13 21 21 13 21 -2 0 -10 -8 -17
-17z"/>
<path d="M2540 1938 c0 -4 16 -8 35 -8 19 0 35 2 35 4 0 2 -16 6 -35 8 -19 2
-35 0 -35 -4z"/>
<path d="M688 1873 c2 -31 14 -100 26 -154 14 -61 19 -104 14 -114 -6 -9 -5
-15 2 -15 6 0 9 -4 5 -9 -3 -5 2 -17 11 -25 8 -9 13 -16 10 -16 -4 0 3 -18 14
-40 11 -23 18 -45 15 -50 -3 -6 -2 -10 3 -10 4 0 16 -15 25 -32 9 -18 35 -58
57 -88 23 -30 48 -66 58 -80 35 -51 141 -187 156 -200 9 -7 16 -18 16 -25 0
-16 150 -154 247 -227 141 -107 331 -217 382 -223 13 -1 30 -11 38 -21 7 -10
13 -14 13 -8 0 5 5 2 10 -6 6 -10 10 -11 10 -3 0 9 7 10 23 4 12 -5 45 -11 73
-15 29 -3 80 -13 115 -22 35 -10 75 -18 89 -19 14 -2 66 -7 115 -13 128 -15
297 -23 291 -13 -3 4 -43 11 -88 14 -335 24 -764 202 -1063 442 -266 213 -503
559 -621 909 -21 64 -41 116 -45 116 -3 0 -3 -26 -1 -57z"/>
<path d="M1500 1760 c12 -16 24 -30 26 -30 3 0 -4 14 -16 30 -12 17 -24 30
-26 30 -3 0 4 -13 16 -30z"/>
<path d="M4891 1744 c0 -11 3 -14 6 -6 3 7 2 16 -1 19 -3 4 -6 -2 -5 -13z"/>
<path d="M1530 1716 c0 -2 8 -10 18 -17 15 -13 16 -12 3 4 -13 16 -21 21 -21
13z"/>
<path d="M4145 1709 c-4 -6 -5 -12 -2 -15 2 -3 7 2 10 11 7 17 1 20 -8 4z"/>
<path d="M1202 1682 c-18 -15 -32 -30 -32 -34 0 -3 20 -16 45 -28 27 -13 74
-54 119 -103 41 -45 89 -91 108 -101 30 -18 28 -15 -20 40 -29 32 -81 103
-115 156 -34 54 -64 97 -67 97 -3 0 -20 -12 -38 -27z"/>
<path d="M1580 1655 c13 -14 26 -25 28 -25 3 0 -5 11 -18 25 -13 14 -26 25
-28 25 -3 0 5 -11 18 -25z"/>
<path d="M4092 1615 c-12 -25 -30 -49 -40 -52 -9 -4 -22 -13 -28 -21 -7 -9
-20 -13 -33 -9 -11 3 -19 1 -15 -4 3 -5 0 -9 -6 -9 -6 0 -8 -4 -5 -10 3 -5 1
-10 -5 -10 -5 0 -22 -26 -36 -57 -22 -52 -24 -61 -12 -86 l13 -28 82 123 c85
130 129 208 115 208 -4 0 -18 -20 -30 -45z"/>
<path d="M1670 1555 c30 -30 57 -55 59 -55 3 0 -19 25 -49 55 -30 30 -57 55
-59 55 -3 0 19 -25 49 -55z"/>
<path d="M4806 1523 c-20 -47 -34 -88 -32 -91 19 -18 53 34 92 141 12 34 12
37 -5 37 -13 0 -28 -23 -55 -87z"/>
<path d="M3869 1583 c-13 -16 -12 -17 4 -4 9 7 17 15 17 17 0 8 -8 3 -21 -13z"/>
<path d="M3811 1516 c-23 -23 -28 -34 -17 -32 9 1 17 6 17 12 0 5 10 19 21 32
12 12 19 22 17 22 -3 0 -20 -15 -38 -34z"/>
<path d="M3559 1523 c-13 -16 -12 -17 4 -4 16 13 21 21 13 21 -2 0 -10 -8 -17
-17z"/>
<path d="M3889 1483 c-13 -16 -12 -17 4 -4 16 13 21 21 13 21 -2 0 -10 -8 -17
-17z"/>
<path d="M3494 1468 l-19 -23 23 19 c21 18 27 26 19 26 -2 0 -12 -10 -23 -22z"/>
<path d="M2638 1453 c6 -2 18 -2 25 0 6 3 1 5 -13 5 -14 0 -19 -2 -12 -5z"/>
<path d="M3449 1433 c-13 -16 -12 -17 4 -4 16 13 21 21 13 21 -2 0 -10 -8 -17
-17z"/>
<path d="M4658 1393 c-19 -22 -120 -210 -118 -219 1 -4 -2 -10 -7 -13 -12 -8
-55 -84 -44 -77 5 4 11 1 13 -5 2 -6 25 24 52 65 27 42 55 81 63 88 8 6 23 29
34 49 24 49 62 89 83 89 27 0 18 17 -15 29 -41 14 -43 14 -61 -6z m-75 -180
c-8 -23 -33 -60 -33 -50 0 11 29 67 35 67 2 0 2 -8 -2 -17z"/>
<path d="M3764 1348 l-19 -23 23 19 c21 18 27 26 19 26 -2 0 -12 -10 -23 -22z"/>
<path d="M146 1157 c3 -10 9 -15 12 -12 3 3 0 11 -7 18 -10 9 -11 8 -5 -6z"/>
<path d="M1660 1107 c0 -7 119 -84 193 -125 94 -53 307 -133 347 -131 8 0 -16
11 -55 23 -136 43 -335 139 -457 220 -16 10 -28 16 -28 13z"/>
<path d="M2044 1048 c-4 -7 -3 -8 4 -4 7 4 12 3 12 -2 0 -5 8 -12 18 -15 9 -3
62 -22 117 -42 55 -20 142 -50 192 -66 l93 -28 112 29 c180 46 220 57 263 74
33 13 35 15 10 11 -178 -29 -379 -33 -520 -10 -50 8 -130 26 -178 40 -98 28
-113 30 -123 13z"/>
<path d="M2521 1044 c0 -11 3 -14 6 -6 3 7 2 16 -1 19 -3 4 -6 -2 -5 -13z"/>
<path d="M4450 1030 c-7 -13 -7 -20 0 -20 5 0 10 5 10 11 0 5 5 7 10 4 6 -3
10 -2 10 4 0 20 -19 21 -30 1z"/>
<path d="M4415 924 c-11 -8 -20 -18 -20 -22 -1 -4 -6 -17 -14 -30 -9 -17 -16
-20 -25 -13 -9 7 -23 -3 -52 -37 -49 -58 -63 -79 -43 -66 8 4 26 7 40 6 17 -2
29 3 33 13 3 10 11 13 18 9 7 -4 10 -4 6 1 -8 9 12 52 54 113 32 46 32 48 3
26z"/>
<path d="M2228 843 c7 -3 16 -2 19 1 4 3 -2 6 -13 5 -11 0 -14 -3 -6 -6z"/>
<path d="M2268 833 c7 -3 16 -2 19 1 4 3 -2 6 -13 5 -11 0 -14 -3 -6 -6z"/>
<path d="M2742 794 c-118 -13 -154 -21 -112 -24 14 -1 27 -2 30 -2 3 0 43 3
90 6 108 8 151 16 144 27 -6 10 -3 10 -152 -7z"/>
<path d="M4301 737 c-8 -10 -7 -14 2 -14 8 0 14 6 14 14 0 7 -1 13 -2 13 -2 0
-8 -6 -14 -13z"/>
<path d="M4195 700 c-21 -22 -33 -40 -26 -40 8 0 19 -7 26 -16 10 -15 15 -14
41 12 17 16 22 22 11 14 -17 -14 -18 -12 -14 28 2 23 3 42 3 42 -1 0 -20 -18
-41 -40z"/>
<path d="M4030 580 l-35 -29 45 0 c55 0 89 21 70 44 -18 22 -41 18 -80 -15z"/>
<path d="M3463 562 c-49 -24 -67 -42 -43 -42 6 0 10 5 10 11 0 5 5 7 10 4 6
-3 10 -1 10 6 0 7 3 10 6 6 7 -7 60 18 69 33 9 15 -5 11 -62 -18z"/>
<path d="M1475 535 c11 -8 35 -28 54 -43 18 -15 59 -41 90 -58 31 -16 67 -37
81 -46 52 -34 222 -102 395 -159 175 -57 204 -63 350 -74 39 -3 105 -10 147
-17 88 -13 144 -6 347 43 191 47 313 85 420 130 191 82 266 126 331 194 35 37
33 36 -115 -38 -224 -111 -394 -175 -583 -218 -53 -12 -100 -26 -103 -31 -7
-12 -136 -45 -206 -54 -50 -6 -52 -5 -59 20 l-6 26 -122 0 c-164 0 -256 9
-256 26 0 18 -11 23 -99 44 -185 45 -469 153 -631 242 -30 16 -46 22 -35 13z"/>
<path d="M2683 473 c9 -2 25 -2 35 0 9 3 1 5 -18 5 -19 0 -27 -2 -17 -5z"/>
<path d="M3233 463 c-24 -8 -43 -19 -43 -25 0 -6 6 -6 15 2 8 7 15 9 15 5 0
-4 7 -2 15 5 8 7 15 9 15 5 0 -4 6 -2 13 4 8 6 17 8 20 4 4 -3 7 -1 7 5 0 15
-4 14 -57 -5z"/>
<path d="M3959 463 c-13 -16 -12 -17 4 -4 16 13 21 21 13 21 -2 0 -10 -8 -17
-17z"/>
<path d="M3155 430 c4 -6 11 -8 16 -5 14 9 11 15 -7 15 -8 0 -12 -5 -9 -10z"/>
<path d="M3870 400 c-14 -11 -20 -20 -14 -20 6 0 19 9 29 20 23 25 17 25 -15
0z"/>
<path d="M3045 400 c-3 -5 -13 -7 -23 -4 -14 5 -14 4 -2 -4 10 -8 18 -8 27 -1
7 6 18 7 24 3 8 -4 9 -3 5 4 -9 14 -23 15 -31 2z"/>
<path d="M2968 385 c-2 -3 -54 -14 -114 -24 -67 -12 -94 -20 -69 -20 22 0 58
4 80 9 78 18 100 22 118 23 9 1 17 5 17 9 0 9 -24 11 -32 3z"/>
<path d="M3773 339 c-18 -12 -33 -23 -33 -25 0 -11 20 -2 46 21 35 30 30 32
-13 4z"/>
<path d="M2693 333 c9 -2 25 -2 35 0 9 3 1 5 -18 5 -19 0 -27 -2 -17 -5z"/>
<path d="M3615 237 c-42 -34 -146 -84 -277 -133 -43 -16 -78 -32 -78 -35 0 -8
215 47 241 62 10 5 22 8 26 7 17 -5 94 43 87 54 -5 7 -2 9 8 5 12 -4 14 -1 11
14 -3 11 2 28 12 39 26 29 16 24 -30 -13z"/>
<path d="M1928 8 c5 -5 16 -8 23 -6 8 3 3 7 -10 11 -17 4 -21 3 -13 -5z"/>
</g>
</svg>